2023-04-23 13:43:45.461 +03:00 [ERR] ffmpeg version N-109079-g3ab11dc5bb-20221114 Copyright (c) 2000-2022 the FFmpeg developers
2023-04-23 13:43:45.470 +03:00 [ERR]   built with gcc 12.2.0 (crosstool-NG 1.25.0.90_cf9beb1)
2023-04-23 13:43:45.470 +03:00 [ERR]   configuration: --prefix=/ffbuild/prefix --pkg-config-flags=--static --pkg-config=pkg-config --cross-prefix=x86_64-w64-mingw32- --arch=x86_64 --target-os=mingw32 --enable-gpl --enable-version3 --disable-debug --disable-w32threads --enable-pthreads --enable-iconv --enable-libxml2 --enable-zlib --enable-libfreetype --enable-libfribidi --enable-gmp --enable-lzma --enable-fontconfig --enable-libvorbis --enable-opencl --disable-libpulse --enable-libvmaf --disable-libxcb --disable-xlib --enable-amf --enable-libaom --enable-libaribb24 --enable-avisynth --enable-chromaprint --enable-libdav1d --enable-libdavs2 --disable-libfdk-aac --enable-ffnvcodec --enable-cuda-llvm --enable-frei0r --enable-libgme --enable-libkvazaar --enable-libass --enable-libbluray --enable-libjxl --enable-libmp3lame --enable-libopus --enable-librist --enable-libssh --enable-libtheora --enable-libvpx --enable-libwebp --enable-lv2 --disable-libmfx --enable-libvpl --enable-openal --enable-libopencore-amrnb --enable-libopencore-amrwb --enable-libopenh264 --enable-libopenjpeg --enable-libopenmpt --enable-librav1e --enable-librubberband --enable-schannel --enable-sdl2 --enable-libsoxr --enable-libsrt --enable-libsvtav1 --enable-libtwolame --enable-libuavs3d --disable-libdrm --disable-vaapi --enable-libvidstab --enable-vulkan --enable-libshaderc --enable-libplacebo --enable-libx264 --enable-libx265 --enable-libxavs2 --enable-libxvid --enable-libzimg --enable-libzvbi --extra-cflags=-DLIBTWOLAME_STATIC --extra-cxxflags= --extra-ldflags=-pthread --extra-ldexeflags= --extra-libs=-lgomp --extra-version=20221114
2023-04-23 13:43:45.470 +03:00 [ERR]   libavutil      57. 42.100 / 57. 42.100
2023-04-23 13:43:45.471 +03:00 [ERR]   libavcodec     59. 52.102 / 59. 52.102
2023-04-23 13:43:45.471 +03:00 [ERR]   libavformat    59. 34.101 / 59. 34.101
2023-04-23 13:43:45.471 +03:00 [ERR]   libavdevice    59.  8.101 / 59.  8.101
2023-04-23 13:43:45.471 +03:00 [ERR]   libavfilter     8. 50.100 /  8. 50.100
2023-04-23 13:43:45.471 +03:00 [ERR]   libswscale      6.  8.112 /  6.  8.112
2023-04-23 13:43:45.471 +03:00 [ERR]   libswresample   4.  9.100 /  4.  9.100
2023-04-23 13:43:45.471 +03:00 [ERR]   libpostproc    56.  7.100 / 56.  7.100
2023-04-23 13:43:45.529 +03:00 [ERR] Input #0, mov,mp4,m4a,3gp,3g2,mj2, from 'Videos/15980659944410.mp4':
2023-04-23 13:43:45.530 +03:00 [ERR]   Metadata:
2023-04-23 13:43:45.530 +03:00 [ERR]     major_brand     : isom
2023-04-23 13:43:45.530 +03:00 [ERR]     minor_version   : 512
2023-04-23 13:43:45.530 +03:00 [ERR]     compatible_brands: isomiso2avc1mp41
2023-04-23 13:43:45.530 +03:00 [ERR]     encoder         : Lavf58.20.100
2023-04-23 13:43:45.530 +03:00 [ERR]   Duration: 00:00:06.91, start: 0.000000, bitrate: 4617 kb/s
2023-04-23 13:43:45.530 +03:00 [ERR]   Stream #0:0[0x1](und): Video: h264 (High) (avc1 / 0x31637661), yuv420p(progressive), 1920x1080 [SAR 1:1 DAR 16:9], 4420 kb/s, 29.97 fps, 29.97 tbr, 30k tbn (default)
2023-04-23 13:43:45.530 +03:00 [ERR]     Metadata:
2023-04-23 13:43:45.530 +03:00 [ERR]       handler_name    : VideoHandler
2023-04-23 13:43:45.530 +03:00 [ERR]       vendor_id       : [0][0][0][0]
2023-04-23 13:43:45.530 +03:00 [ERR]   Stream #0:1[0x2](und): Audio: aac (LC) (mp4a / 0x6134706D), 44100 Hz, stereo, fltp, 192 kb/s (default)
2023-04-23 13:43:45.531 +03:00 [ERR]     Metadata:
2023-04-23 13:43:45.531 +03:00 [ERR]       handler_name    : SoundHandler
2023-04-23 13:43:45.531 +03:00 [ERR]       vendor_id       : [0][0][0][0]
2023-04-23 13:43:45.537 +03:00 [ERR] Stream mapping:
2023-04-23 13:43:45.537 +03:00 [ERR]   Stream #0:0 -> #0:0 (h264 (native) -> h264 (libx264))
2023-04-23 13:43:45.537 +03:00 [ERR]   Stream #0:1 -> #0:1 (aac (native) -> aac (native))
2023-04-23 13:43:45.538 +03:00 [ERR] Press [q] to stop, [?] for help
2023-04-23 13:43:46.308 +03:00 [ERR] [libx264 @ 000001d44e52b640] using SAR=1/1
2023-04-23 13:43:46.311 +03:00 [ERR] [libx264 @ 000001d44e52b640] using cpu capabilities: MMX2 SSE2Fast SSSE3 SSE4.2 AVX FMA3 BMI2 AVX2
2023-04-23 13:43:46.315 +03:00 [ERR] [libx264 @ 000001d44e52b640] profile High, level 4.0, 4:2:0, 8-bit
2023-04-23 13:43:46.315 +03:00 [ERR] [libx264 @ 000001d44e52b640] 264 - core 164 - H.264/MPEG-4 AVC codec - Copyleft 2003-2022 - http://www.videolan.org/x264.html - options: cabac=1 ref=3 deblock=1:0:0 analyse=0x3:0x113 me=hex subme=7 psy=1 psy_rd=1.00:0.00 mixed_ref=1 me_range=16 chroma_me=1 trellis=1 8x8dct=1 cqm=0 deadzone=21,11 fast_pskip=1 chroma_qp_offset=-2 threads=6 lookahead_threads=1 sliced_threads=0 nr=0 decimate=1 interlaced=0 bluray_compat=0 constrained_intra=0 bframes=3 b_pyramid=2 b_adapt=1 b_bias=0 direct=1 weightb=1 open_gop=0 weightp=2 keyint=250 keyint_min=25 scenecut=40 intra_refresh=0 rc_lookahead=40 rc=crf mbtree=1 crf=23.0 qcomp=0.60 qpmin=0 qpmax=69 qpstep=4 ip_ratio=1.40 aq=1:1.00
2023-04-23 13:43:46.316 +03:00 [ERR] Output #0, mp4, to 'outputReversed.mp4':
2023-04-23 13:43:46.316 +03:00 [ERR]   Metadata:
2023-04-23 13:43:46.316 +03:00 [ERR]     major_brand     : isom
2023-04-23 13:43:46.316 +03:00 [ERR]     minor_version   : 512
2023-04-23 13:43:46.316 +03:00 [ERR]     compatible_brands: isomiso2avc1mp41
2023-04-23 13:43:46.316 +03:00 [ERR]     encoder         : Lavf59.34.101
2023-04-23 13:43:46.316 +03:00 [ERR]   Stream #0:0(und): Video: h264 (avc1 / 0x31637661), yuv420p(progressive), 1920x1080 [SAR 1:1 DAR 16:9], q=2-31, 29.97 fps, 30k tbn (default)
2023-04-23 13:43:46.316 +03:00 [ERR]     Metadata:
2023-04-23 13:43:46.316 +03:00 [ERR]       handler_name    : VideoHandler
2023-04-23 13:43:46.316 +03:00 [ERR]       vendor_id       : [0][0][0][0]
2023-04-23 13:43:46.316 +03:00 [ERR]       encoder         : Lavc59.52.102 libx264
2023-04-23 13:43:46.316 +03:00 [ERR]     Side data:
2023-04-23 13:43:46.316 +03:00 [ERR]       cpb: bitrate max/min/avg: 0/0/0 buffer size: 0 vbv_delay: N/A
2023-04-23 13:43:46.316 +03:00 [ERR]   Stream #0:1(und): Audio: aac (LC) (mp4a / 0x6134706D), 44100 Hz, stereo, fltp, 128 kb/s (default)
2023-04-23 13:43:46.316 +03:00 [ERR]     Metadata:
2023-04-23 13:43:46.316 +03:00 [ERR]       handler_name    : SoundHandler
2023-04-23 13:43:46.316 +03:00 [ERR]       vendor_id       : [0][0][0][0]
2023-04-23 13:43:46.316 +03:00 [ERR]       encoder         : Lavc59.52.102 aac
2023-04-23 13:43:46.321 +03:00 [ERR] frame=    0 fps=0.0 q=0.0 size=       0kB time=-577014:32:22.77 bitrate=  -0.0kbits/s speed=N/A    
2023-04-23 13:43:47.079 +03:00 [ERR] frame=    0 fps=0.0 q=0.0 size=       0kB time=00:00:01.46 bitrate=   0.3kbits/s speed=0.951x    
2023-04-23 13:43:47.594 +03:00 [ERR] frame=   18 fps=8.8 q=29.0 size=       0kB time=00:00:02.18 bitrate=   0.2kbits/s speed=1.06x    
2023-04-23 13:43:48.140 +03:00 [ERR] frame=   39 fps= 15 q=29.0 size=     256kB time=00:00:02.90 bitrate= 722.7kbits/s speed=1.12x    
2023-04-23 13:43:48.687 +03:00 [ERR] frame=   55 fps= 18 q=29.0 size=     256kB time=00:00:03.45 bitrate= 606.3kbits/s speed=1.11x    
2023-04-23 13:43:49.224 +03:00 [ERR] frame=   66 fps= 18 q=29.0 size=     256kB time=00:00:03.78 bitrate= 554.2kbits/s speed=1.03x    
2023-04-23 13:43:49.834 +03:00 [ERR] frame=   82 fps= 19 q=29.0 size=     512kB time=00:00:04.31 bitrate= 971.2kbits/s speed=1.01x    
2023-04-23 13:43:50.404 +03:00 [ERR] frame=   94 fps= 20 q=29.0 size=     768kB time=00:00:04.73 bitrate=1328.3kbits/s speed=0.992x    
2023-04-23 13:43:51.056 +03:00 [ERR] frame=  112 fps= 21 q=29.0 size=     768kB time=00:00:05.31 bitrate=1183.3kbits/s speed=0.989x    
2023-04-23 13:43:51.488 +03:00 [ERR] frame=  128 fps= 22 q=29.0 size=    1024kB time=00:00:05.85 bitrate=1433.7kbits/s speed=0.987x    
2023-04-23 13:43:52.144 +03:00 [ERR] frame=  144 fps= 22 q=29.0 size=    1024kB time=00:00:06.38 bitrate=1313.8kbits/s speed=0.979x    
2023-04-23 13:43:54.159 +03:00 [ERR] frame=  207 fps= 24 q=-1.0 Lsize=    1889kB time=00:00:06.80 bitrate=2274.0kbits/s speed=0.79x    
2023-04-23 13:43:54.160 +03:00 [ERR] video:1788kB audio:93kB subtitle:0kB other streams:0kB global headers:0kB muxing overhead: 0.456332%
2023-04-23 13:43:54.240 +03:00 [ERR] [libx264 @ 000001d44e52b640] frame I:1     Avg QP:20.50  size: 65249
2023-04-23 13:43:54.240 +03:00 [ERR] [libx264 @ 000001d44e52b640] frame P:52    Avg QP:22.02  size: 19434
2023-04-23 13:43:54.240 +03:00 [ERR] [libx264 @ 000001d44e52b640] frame B:154   Avg QP:24.04  size:  4898
2023-04-23 13:43:54.240 +03:00 [ERR] [libx264 @ 000001d44e52b640] consecutive B-frames:  0.5%  1.0%  0.0% 98.6%
2023-04-23 13:43:54.240 +03:00 [ERR] [libx264 @ 000001d44e52b640] mb I  I16..4: 30.6% 56.2% 13.3%
2023-04-23 13:43:54.240 +03:00 [ERR] [libx264 @ 000001d44e52b640] mb P  I16..4: 11.0% 16.1%  0.3%  P16..4: 25.0%  5.0%  1.5%  0.0%  0.0%    skip:41.1%
2023-04-23 13:43:54.240 +03:00 [ERR] [libx264 @ 000001d44e52b640] mb B  I16..4:  1.0%  1.5%  0.0%  B16..8: 19.8%  1.2%  0.1%  direct: 1.5%  skip:74.9%  L0:46.9% L1:51.5% BI: 1.7%
2023-04-23 13:43:54.240 +03:00 [ERR] [libx264 @ 000001d44e52b640] 8x8 transform intra:58.4% inter:93.3%
2023-04-23 13:43:54.241 +03:00 [ERR] [libx264 @ 000001d44e52b640] coded y,uvDC,uvAC intra: 24.4% 66.0% 9.2% inter: 3.4% 11.6% 0.1%
2023-04-23 13:43:54.241 +03:00 [ERR] [libx264 @ 000001d44e52b640] i16 v,h,dc,p: 32% 24%  7% 37%
2023-04-23 13:43:54.241 +03:00 [ERR] [libx264 @ 000001d44e52b640] i8 v,h,dc,ddl,ddr,vr,hd,vl,hu: 30% 21% 25%  2%  5%  7%  4%  3%  3%
2023-04-23 13:43:54.241 +03:00 [ERR] [libx264 @ 000001d44e52b640] i4 v,h,dc,ddl,ddr,vr,hd,vl,hu: 47% 23%  9%  2%  5%  5%  4%  3%  2%
2023-04-23 13:43:54.241 +03:00 [ERR] [libx264 @ 000001d44e52b640] i8c dc,h,v,p: 42% 21% 27% 11%
2023-04-23 13:43:54.241 +03:00 [ERR] [libx264 @ 000001d44e52b640] Weighted P-Frames: Y:0.0% UV:0.0%
2023-04-23 13:43:54.241 +03:00 [ERR] [libx264 @ 000001d44e52b640] ref P L0: 68.8%  7.0% 16.5%  7.8%
2023-04-23 13:43:54.241 +03:00 [ERR] [libx264 @ 000001d44e52b640] ref B L0: 88.2%  9.5%  2.3%
2023-04-23 13:43:54.241 +03:00 [ERR] [libx264 @ 000001d44e52b640] ref B L1: 95.4%  4.6%
2023-04-23 13:43:54.241 +03:00 [ERR] [libx264 @ 000001d44e52b640] kb/s:2119.77
2023-04-23 13:43:54.294 +03:00 [ERR] [aac @ 000001d44e05c740] Qavg: 9372.145
2023-04-23 13:53:31.185 +03:00 [ERR] ffmpeg version N-109079-g3ab11dc5bb-20221114 Copyright (c) 2000-2022 the FFmpeg developers
2023-04-23 13:53:31.197 +03:00 [ERR]   built with gcc 12.2.0 (crosstool-NG 1.25.0.90_cf9beb1)
2023-04-23 13:53:31.197 +03:00 [ERR]   configuration: --prefix=/ffbuild/prefix --pkg-config-flags=--static --pkg-config=pkg-config --cross-prefix=x86_64-w64-mingw32- --arch=x86_64 --target-os=mingw32 --enable-gpl --enable-version3 --disable-debug --disable-w32threads --enable-pthreads --enable-iconv --enable-libxml2 --enable-zlib --enable-libfreetype --enable-libfribidi --enable-gmp --enable-lzma --enable-fontconfig --enable-libvorbis --enable-opencl --disable-libpulse --enable-libvmaf --disable-libxcb --disable-xlib --enable-amf --enable-libaom --enable-libaribb24 --enable-avisynth --enable-chromaprint --enable-libdav1d --enable-libdavs2 --disable-libfdk-aac --enable-ffnvcodec --enable-cuda-llvm --enable-frei0r --enable-libgme --enable-libkvazaar --enable-libass --enable-libbluray --enable-libjxl --enable-libmp3lame --enable-libopus --enable-librist --enable-libssh --enable-libtheora --enable-libvpx --enable-libwebp --enable-lv2 --disable-libmfx --enable-libvpl --enable-openal --enable-libopencore-amrnb --enable-libopencore-amrwb --enable-libopenh264 --enable-libopenjpeg --enable-libopenmpt --enable-librav1e --enable-librubberband --enable-schannel --enable-sdl2 --enable-libsoxr --enable-libsrt --enable-libsvtav1 --enable-libtwolame --enable-libuavs3d --disable-libdrm --disable-vaapi --enable-libvidstab --enable-vulkan --enable-libshaderc --enable-libplacebo --enable-libx264 --enable-libx265 --enable-libxavs2 --enable-libxvid --enable-libzimg --enable-libzvbi --extra-cflags=-DLIBTWOLAME_STATIC --extra-cxxflags= --extra-ldflags=-pthread --extra-ldexeflags= --extra-libs=-lgomp --extra-version=20221114
2023-04-23 13:53:31.197 +03:00 [ERR]   libavutil      57. 42.100 / 57. 42.100
2023-04-23 13:53:31.197 +03:00 [ERR]   libavcodec     59. 52.102 / 59. 52.102
2023-04-23 13:53:31.197 +03:00 [ERR]   libavformat    59. 34.101 / 59. 34.101
2023-04-23 13:53:31.198 +03:00 [ERR]   libavdevice    59.  8.101 / 59.  8.101
2023-04-23 13:53:31.198 +03:00 [ERR]   libavfilter     8. 50.100 /  8. 50.100
2023-04-23 13:53:31.198 +03:00 [ERR]   libswscale      6.  8.112 /  6.  8.112
2023-04-23 13:53:31.198 +03:00 [ERR]   libswresample   4.  9.100 /  4.  9.100
2023-04-23 13:53:31.198 +03:00 [ERR]   libpostproc    56.  7.100 / 56.  7.100
2023-04-23 13:53:31.207 +03:00 [ERR] Input #0, mov,mp4,m4a,3gp,3g2,mj2, from 'Videos/15980659944410.mp4':
2023-04-23 13:53:31.207 +03:00 [ERR]   Metadata:
2023-04-23 13:53:31.207 +03:00 [ERR]     major_brand     : isom
2023-04-23 13:53:31.208 +03:00 [ERR]     minor_version   : 512
2023-04-23 13:53:31.208 +03:00 [ERR]     compatible_brands: isomiso2avc1mp41
2023-04-23 13:53:31.208 +03:00 [ERR]     encoder         : Lavf58.20.100
2023-04-23 13:53:31.208 +03:00 [ERR]   Duration: 00:00:06.91, start: 0.000000, bitrate: 4617 kb/s
2023-04-23 13:53:31.208 +03:00 [ERR]   Stream #0:0[0x1](und): Video: h264 (High) (avc1 / 0x31637661), yuv420p(progressive), 1920x1080 [SAR 1:1 DAR 16:9], 4420 kb/s, 29.97 fps, 29.97 tbr, 30k tbn (default)
2023-04-23 13:53:31.208 +03:00 [ERR]     Metadata:
2023-04-23 13:53:31.208 +03:00 [ERR]       handler_name    : VideoHandler
2023-04-23 13:53:31.208 +03:00 [ERR]       vendor_id       : [0][0][0][0]
2023-04-23 13:53:31.208 +03:00 [ERR]   Stream #0:1[0x2](und): Audio: aac (LC) (mp4a / 0x6134706D), 44100 Hz, stereo, fltp, 192 kb/s (default)
2023-04-23 13:53:31.208 +03:00 [ERR]     Metadata:
2023-04-23 13:53:31.208 +03:00 [ERR]       handler_name    : SoundHandler
2023-04-23 13:53:31.208 +03:00 [ERR]       vendor_id       : [0][0][0][0]
2023-04-23 13:53:31.219 +03:00 [ERR] Stream mapping:
2023-04-23 13:53:31.219 +03:00 [ERR]   Stream #0:0 -> #0:0 (h264 (native) -> h264 (libx264))
2023-04-23 13:53:31.219 +03:00 [ERR]   Stream #0:1 -> #0:1 (aac (native) -> aac (native))
2023-04-23 13:53:31.219 +03:00 [ERR] Press [q] to stop, [?] for help
2023-04-23 13:53:32.107 +03:00 [ERR] [libx264 @ 000001fcf49caec0] using SAR=1/1
2023-04-23 13:53:32.107 +03:00 [ERR] [libx264 @ 000001fcf49caec0] using cpu capabilities: MMX2 SSE2Fast SSSE3 SSE4.2 AVX FMA3 BMI2 AVX2
2023-04-23 13:53:32.117 +03:00 [ERR] [libx264 @ 000001fcf49caec0] profile High, level 4.0, 4:2:0, 8-bit
2023-04-23 13:53:32.117 +03:00 [ERR] [libx264 @ 000001fcf49caec0] 264 - core 164 - H.264/MPEG-4 AVC codec - Copyleft 2003-2022 - http://www.videolan.org/x264.html - options: cabac=1 ref=3 deblock=1:0:0 analyse=0x3:0x113 me=hex subme=7 psy=1 psy_rd=1.00:0.00 mixed_ref=1 me_range=16 chroma_me=1 trellis=1 8x8dct=1 cqm=0 deadzone=21,11 fast_pskip=1 chroma_qp_offset=-2 threads=6 lookahead_threads=1 sliced_threads=0 nr=0 decimate=1 interlaced=0 bluray_compat=0 constrained_intra=0 bframes=3 b_pyramid=2 b_adapt=1 b_bias=0 direct=1 weightb=1 open_gop=0 weightp=2 keyint=250 keyint_min=25 scenecut=40 intra_refresh=0 rc_lookahead=40 rc=crf mbtree=1 crf=23.0 qcomp=0.60 qpmin=0 qpmax=69 qpstep=4 ip_ratio=1.40 aq=1:1.00
2023-04-23 13:53:32.117 +03:00 [ERR] Output #0, mp4, to 'Videos/outputReversed.mp4':
2023-04-23 13:53:32.117 +03:00 [ERR]   Metadata:
2023-04-23 13:53:32.117 +03:00 [ERR]     major_brand     : isom
2023-04-23 13:53:32.117 +03:00 [ERR]     minor_version   : 512
2023-04-23 13:53:32.117 +03:00 [ERR]     compatible_brands: isomiso2avc1mp41
2023-04-23 13:53:32.118 +03:00 [ERR]     encoder         : Lavf59.34.101
2023-04-23 13:53:32.118 +03:00 [ERR]   Stream #0:0(und): Video: h264 (avc1 / 0x31637661), yuv420p(progressive), 1920x1080 [SAR 1:1 DAR 16:9], q=2-31, 29.97 fps, 30k tbn (default)
2023-04-23 13:53:32.118 +03:00 [ERR]     Metadata:
2023-04-23 13:53:32.118 +03:00 [ERR]       handler_name    : VideoHandler
2023-04-23 13:53:32.118 +03:00 [ERR]       vendor_id       : [0][0][0][0]
2023-04-23 13:53:32.118 +03:00 [ERR]       encoder         : Lavc59.52.102 libx264
2023-04-23 13:53:32.118 +03:00 [ERR]     Side data:
2023-04-23 13:53:32.118 +03:00 [ERR]       cpb: bitrate max/min/avg: 0/0/0 buffer size: 0 vbv_delay: N/A
2023-04-23 13:53:32.118 +03:00 [ERR]   Stream #0:1(und): Audio: aac (LC) (mp4a / 0x6134706D), 44100 Hz, stereo, fltp, 128 kb/s (default)
2023-04-23 13:53:32.118 +03:00 [ERR]     Metadata:
2023-04-23 13:53:32.118 +03:00 [ERR]       handler_name    : SoundHandler
2023-04-23 13:53:32.118 +03:00 [ERR]       vendor_id       : [0][0][0][0]
2023-04-23 13:53:32.118 +03:00 [ERR]       encoder         : Lavc59.52.102 aac
2023-04-23 13:53:32.122 +03:00 [ERR] frame=    0 fps=0.0 q=0.0 size=       0kB time=-577014:32:22.77 bitrate=  -0.0kbits/s speed=N/A    
2023-04-23 13:53:32.763 +03:00 [ERR] frame=    0 fps=0.0 q=0.0 size=       0kB time=00:00:01.46 bitrate=   0.3kbits/s speed=0.946x    
2023-04-23 13:53:33.317 +03:00 [ERR] frame=   17 fps=8.2 q=29.0 size=       0kB time=00:00:02.15 bitrate=   0.2kbits/s speed=1.04x    
2023-04-23 13:53:33.837 +03:00 [ERR] frame=   34 fps= 13 q=29.0 size=       0kB time=00:00:02.71 bitrate=   0.1kbits/s speed=1.04x    
2023-04-23 13:53:34.384 +03:00 [ERR] frame=   53 fps= 17 q=29.0 size=     256kB time=00:00:03.36 bitrate= 623.0kbits/s speed=1.07x    
2023-04-23 13:53:34.935 +03:00 [ERR] frame=   70 fps= 19 q=29.0 size=     512kB time=00:00:03.92 bitrate=1068.9kbits/s speed=1.06x    
2023-04-23 13:53:35.419 +03:00 [ERR] frame=   83 fps= 20 q=29.0 size=     512kB time=00:00:04.36 bitrate= 960.9kbits/s speed=1.04x    
2023-04-23 13:53:36.020 +03:00 [ERR] frame=  102 fps= 21 q=29.0 size=     768kB time=00:00:04.99 bitrate=1260.3kbits/s speed=1.05x    
2023-04-23 13:53:36.579 +03:00 [ERR] frame=  120 fps= 22 q=29.0 size=     768kB time=00:00:05.59 bitrate=1124.3kbits/s speed=1.04x    
2023-04-23 13:53:37.173 +03:00 [ERR] frame=  136 fps= 23 q=29.0 size=    1024kB time=00:00:06.13 bitrate=1368.5kbits/s speed=1.03x    
2023-04-23 13:53:37.712 +03:00 [ERR] frame=  153 fps= 24 q=29.0 size=    1280kB time=00:00:06.59 bitrate=1590.1kbits/s speed=1.02x    
2023-04-23 13:53:39.487 +03:00 [ERR] frame=  207 fps= 25 q=-1.0 Lsize=    1889kB time=00:00:06.80 bitrate=2274.0kbits/s speed=0.823x    
2023-04-23 13:53:39.487 +03:00 [ERR] video:1788kB audio:93kB subtitle:0kB other streams:0kB global headers:0kB muxing overhead: 0.456332%
2023-04-23 13:53:39.567 +03:00 [ERR] [libx264 @ 000001fcf49caec0] frame I:1     Avg QP:20.50  size: 65249
2023-04-23 13:53:39.568 +03:00 [ERR] [libx264 @ 000001fcf49caec0] frame P:52    Avg QP:22.02  size: 19434
2023-04-23 13:53:39.568 +03:00 [ERR] [libx264 @ 000001fcf49caec0] frame B:154   Avg QP:24.04  size:  4898
2023-04-23 13:53:39.568 +03:00 [ERR] [libx264 @ 000001fcf49caec0] consecutive B-frames:  0.5%  1.0%  0.0% 98.6%
2023-04-23 13:53:39.568 +03:00 [ERR] [libx264 @ 000001fcf49caec0] mb I  I16..4: 30.6% 56.2% 13.3%
2023-04-23 13:53:39.568 +03:00 [ERR] [libx264 @ 000001fcf49caec0] mb P  I16..4: 11.0% 16.1%  0.3%  P16..4: 25.0%  5.0%  1.5%  0.0%  0.0%    skip:41.1%
2023-04-23 13:53:39.568 +03:00 [ERR] [libx264 @ 000001fcf49caec0] mb B  I16..4:  1.0%  1.5%  0.0%  B16..8: 19.8%  1.2%  0.1%  direct: 1.5%  skip:74.9%  L0:46.9% L1:51.5% BI: 1.7%
2023-04-23 13:53:39.568 +03:00 [ERR] [libx264 @ 000001fcf49caec0] 8x8 transform intra:58.4% inter:93.3%
2023-04-23 13:53:39.568 +03:00 [ERR] [libx264 @ 000001fcf49caec0] coded y,uvDC,uvAC intra: 24.4% 66.0% 9.2% inter: 3.4% 11.6% 0.1%
2023-04-23 13:53:39.568 +03:00 [ERR] [libx264 @ 000001fcf49caec0] i16 v,h,dc,p: 32% 24%  7% 37%
2023-04-23 13:53:39.568 +03:00 [ERR] [libx264 @ 000001fcf49caec0] i8 v,h,dc,ddl,ddr,vr,hd,vl,hu: 30% 21% 25%  2%  5%  7%  4%  3%  3%
2023-04-23 13:53:39.568 +03:00 [ERR] [libx264 @ 000001fcf49caec0] i4 v,h,dc,ddl,ddr,vr,hd,vl,hu: 47% 23%  9%  2%  5%  5%  4%  3%  2%
2023-04-23 13:53:39.568 +03:00 [ERR] [libx264 @ 000001fcf49caec0] i8c dc,h,v,p: 42% 21% 27% 11%
2023-04-23 13:53:39.568 +03:00 [ERR] [libx264 @ 000001fcf49caec0] Weighted P-Frames: Y:0.0% UV:0.0%
2023-04-23 13:53:39.568 +03:00 [ERR] [libx264 @ 000001fcf49caec0] ref P L0: 68.8%  7.0% 16.5%  7.8%
2023-04-23 13:53:39.568 +03:00 [ERR] [libx264 @ 000001fcf49caec0] ref B L0: 88.2%  9.5%  2.3%
2023-04-23 13:53:39.568 +03:00 [ERR] [libx264 @ 000001fcf49caec0] ref B L1: 95.4%  4.6%
2023-04-23 13:53:39.568 +03:00 [ERR] [libx264 @ 000001fcf49caec0] kb/s:2119.77
2023-04-23 13:53:39.616 +03:00 [ERR] [aac @ 000001fcf4b10740] Qavg: 9372.145
2023-04-24 00:10:19.059 +03:00 [ERR] ffmpeg version N-109079-g3ab11dc5bb-20221114 Copyright (c) 2000-2022 the FFmpeg developers
2023-04-24 00:10:19.068 +03:00 [ERR]   built with gcc 12.2.0 (crosstool-NG 1.25.0.90_cf9beb1)
2023-04-24 00:10:19.068 +03:00 [ERR]   configuration: --prefix=/ffbuild/prefix --pkg-config-flags=--static --pkg-config=pkg-config --cross-prefix=x86_64-w64-mingw32- --arch=x86_64 --target-os=mingw32 --enable-gpl --enable-version3 --disable-debug --disable-w32threads --enable-pthreads --enable-iconv --enable-libxml2 --enable-zlib --enable-libfreetype --enable-libfribidi --enable-gmp --enable-lzma --enable-fontconfig --enable-libvorbis --enable-opencl --disable-libpulse --enable-libvmaf --disable-libxcb --disable-xlib --enable-amf --enable-libaom --enable-libaribb24 --enable-avisynth --enable-chromaprint --enable-libdav1d --enable-libdavs2 --disable-libfdk-aac --enable-ffnvcodec --enable-cuda-llvm --enable-frei0r --enable-libgme --enable-libkvazaar --enable-libass --enable-libbluray --enable-libjxl --enable-libmp3lame --enable-libopus --enable-librist --enable-libssh --enable-libtheora --enable-libvpx --enable-libwebp --enable-lv2 --disable-libmfx --enable-libvpl --enable-openal --enable-libopencore-amrnb --enable-libopencore-amrwb --enable-libopenh264 --enable-libopenjpeg --enable-libopenmpt --enable-librav1e --enable-librubberband --enable-schannel --enable-sdl2 --enable-libsoxr --enable-libsrt --enable-libsvtav1 --enable-libtwolame --enable-libuavs3d --disable-libdrm --disable-vaapi --enable-libvidstab --enable-vulkan --enable-libshaderc --enable-libplacebo --enable-libx264 --enable-libx265 --enable-libxavs2 --enable-libxvid --enable-libzimg --enable-libzvbi --extra-cflags=-DLIBTWOLAME_STATIC --extra-cxxflags= --extra-ldflags=-pthread --extra-ldexeflags= --extra-libs=-lgomp --extra-version=20221114
2023-04-24 00:10:19.068 +03:00 [ERR]   libavutil      57. 42.100 / 57. 42.100
2023-04-24 00:10:19.068 +03:00 [ERR]   libavcodec     59. 52.102 / 59. 52.102
2023-04-24 00:10:19.068 +03:00 [ERR]   libavformat    59. 34.101 / 59. 34.101
2023-04-24 00:10:19.068 +03:00 [ERR]   libavdevice    59.  8.101 / 59.  8.101
2023-04-24 00:10:19.068 +03:00 [ERR]   libavfilter     8. 50.100 /  8. 50.100
2023-04-24 00:10:19.068 +03:00 [ERR]   libswscale      6.  8.112 /  6.  8.112
2023-04-24 00:10:19.068 +03:00 [ERR]   libswresample   4.  9.100 /  4.  9.100
2023-04-24 00:10:19.068 +03:00 [ERR]   libpostproc    56.  7.100 / 56.  7.100
2023-04-24 00:10:19.111 +03:00 [ERR] Input #0, mov,mp4,m4a,3gp,3g2,mj2, from 'Videos/15980659944410.mp4':
2023-04-24 00:10:19.111 +03:00 [ERR]   Metadata:
2023-04-24 00:10:19.111 +03:00 [ERR]     major_brand     : isom
2023-04-24 00:10:19.111 +03:00 [ERR]     minor_version   : 512
2023-04-24 00:10:19.112 +03:00 [ERR]     compatible_brands: isomiso2avc1mp41
2023-04-24 00:10:19.112 +03:00 [ERR]     encoder         : Lavf58.20.100
2023-04-24 00:10:19.112 +03:00 [ERR]   Duration: 00:00:06.91, start: 0.000000, bitrate: 4617 kb/s
2023-04-24 00:10:19.112 +03:00 [ERR]   Stream #0:0[0x1](und): Video: h264 (High) (avc1 / 0x31637661), yuv420p(progressive), 1920x1080 [SAR 1:1 DAR 16:9], 4420 kb/s, 29.97 fps, 29.97 tbr, 30k tbn (default)
2023-04-24 00:10:19.112 +03:00 [ERR]     Metadata:
2023-04-24 00:10:19.112 +03:00 [ERR]       handler_name    : VideoHandler
2023-04-24 00:10:19.112 +03:00 [ERR]       vendor_id       : [0][0][0][0]
2023-04-24 00:10:19.112 +03:00 [ERR]   Stream #0:1[0x2](und): Audio: aac (LC) (mp4a / 0x6134706D), 44100 Hz, stereo, fltp, 192 kb/s (default)
2023-04-24 00:10:19.112 +03:00 [ERR]     Metadata:
2023-04-24 00:10:19.112 +03:00 [ERR]       handler_name    : SoundHandler
2023-04-24 00:10:19.112 +03:00 [ERR]       vendor_id       : [0][0][0][0]
2023-04-24 00:10:19.124 +03:00 [ERR] Stream mapping:
2023-04-24 00:10:19.125 +03:00 [ERR]   Stream #0:0 -> #0:0 (h264 (native) -> h264 (libx264))
2023-04-24 00:10:19.125 +03:00 [ERR]   Stream #0:1 -> #0:1 (aac (native) -> aac (native))
2023-04-24 00:10:19.125 +03:00 [ERR] Press [q] to stop, [?] for help
2023-04-24 00:10:20.465 +03:00 [ERR] [libx264 @ 000001409a500b00] using SAR=1/1
2023-04-24 00:10:20.609 +03:00 [ERR] [libx264 @ 000001409a500b00] using cpu capabilities: MMX2 SSE2Fast SSSE3 SSE4.2 AVX FMA3 BMI2 AVX2
2023-04-24 00:10:20.609 +03:00 [ERR] [libx264 @ 000001409a500b00] profile High, level 4.0, 4:2:0, 8-bit
2023-04-24 00:10:20.609 +03:00 [ERR] [libx264 @ 000001409a500b00] 264 - core 164 - H.264/MPEG-4 AVC codec - Copyleft 2003-2022 - http://www.videolan.org/x264.html - options: cabac=1 ref=3 deblock=1:0:0 analyse=0x3:0x113 me=hex subme=7 psy=1 psy_rd=1.00:0.00 mixed_ref=1 me_range=16 chroma_me=1 trellis=1 8x8dct=1 cqm=0 deadzone=21,11 fast_pskip=1 chroma_qp_offset=-2 threads=6 lookahead_threads=1 sliced_threads=0 nr=0 decimate=1 interlaced=0 bluray_compat=0 constrained_intra=0 bframes=3 b_pyramid=2 b_adapt=1 b_bias=0 direct=1 weightb=1 open_gop=0 weightp=2 keyint=250 keyint_min=25 scenecut=40 intra_refresh=0 rc_lookahead=40 rc=crf mbtree=1 crf=23.0 qcomp=0.60 qpmin=0 qpmax=69 qpstep=4 ip_ratio=1.40 aq=1:1.00
2023-04-24 00:10:20.609 +03:00 [ERR] Output #0, mp4, to 'Videos/outputReversed.mp4':
2023-04-24 00:10:20.610 +03:00 [ERR]   Metadata:
2023-04-24 00:10:20.610 +03:00 [ERR]     major_brand     : isom
2023-04-24 00:10:20.610 +03:00 [ERR]     minor_version   : 512
2023-04-24 00:10:20.610 +03:00 [ERR]     compatible_brands: isomiso2avc1mp41
2023-04-24 00:10:20.611 +03:00 [ERR]     encoder         : Lavf59.34.101
2023-04-24 00:10:20.611 +03:00 [ERR]   Stream #0:0(und): Video: h264 (avc1 / 0x31637661), yuv420p(progressive), 1920x1080 [SAR 1:1 DAR 16:9], q=2-31, 29.97 fps, 30k tbn (default)
2023-04-24 00:10:20.611 +03:00 [ERR]     Metadata:
2023-04-24 00:10:20.611 +03:00 [ERR]       handler_name    : VideoHandler
2023-04-24 00:10:20.611 +03:00 [ERR]       vendor_id       : [0][0][0][0]
2023-04-24 00:10:20.611 +03:00 [ERR]       encoder         : Lavc59.52.102 libx264
2023-04-24 00:10:20.611 +03:00 [ERR]     Side data:
2023-04-24 00:10:20.611 +03:00 [ERR]       cpb: bitrate max/min/avg: 0/0/0 buffer size: 0 vbv_delay: N/A
2023-04-24 00:10:20.611 +03:00 [ERR]   Stream #0:1(und): Audio: aac (LC) (mp4a / 0x6134706D), 44100 Hz, stereo, fltp, 128 kb/s (default)
2023-04-24 00:10:20.611 +03:00 [ERR]     Metadata:
2023-04-24 00:10:20.611 +03:00 [ERR]       handler_name    : SoundHandler
2023-04-24 00:10:20.611 +03:00 [ERR]       vendor_id       : [0][0][0][0]
2023-04-24 00:10:20.611 +03:00 [ERR]       encoder         : Lavc59.52.102 aac
2023-04-24 00:10:20.611 +03:00 [ERR] frame=    0 fps=0.0 q=0.0 size=       0kB time=-577014:32:22.77 bitrate=  -0.0kbits/s speed=N/A    
2023-04-24 00:10:21.025 +03:00 [ERR] frame=    0 fps=0.0 q=0.0 size=       0kB time=00:00:00.78 bitrate=   0.5kbits/s speed=0.436x    
2023-04-24 00:10:21.470 +03:00 [ERR] frame=    0 fps=0.0 q=0.0 size=       0kB time=00:00:01.25 bitrate=   0.3kbits/s speed=0.542x    
2023-04-24 00:10:22.156 +03:00 [ERR] frame=    0 fps=0.0 q=0.0 size=       0kB time=00:00:01.46 bitrate=   0.3kbits/s speed=0.503x    
2023-04-24 00:10:22.769 +03:00 [ERR] frame=    1 fps=0.3 q=29.0 size=       0kB time=00:00:01.62 bitrate=   0.2kbits/s speed=0.476x    
2023-04-24 00:10:23.137 +03:00 [ERR] frame=    9 fps=2.3 q=29.0 size=       0kB time=00:00:01.90 bitrate=   0.2kbits/s speed=0.486x    
2023-04-24 00:10:24.048 +03:00 [ERR] frame=   18 fps=4.1 q=29.0 size=       0kB time=00:00:02.18 bitrate=   0.2kbits/s speed=0.492x    
2023-04-24 00:10:24.186 +03:00 [ERR] frame=   26 fps=5.2 q=29.0 size=       0kB time=00:00:02.46 bitrate=   0.2kbits/s speed=0.489x    
2023-04-24 00:10:24.778 +03:00 [ERR] frame=   41 fps=7.3 q=29.0 size=     256kB time=00:00:02.99 bitrate= 700.3kbits/s speed=0.536x    
2023-04-24 00:10:25.236 +03:00 [ERR] frame=   59 fps=9.7 q=29.0 size=     256kB time=00:00:03.55 bitrate= 590.4kbits/s speed=0.583x    
2023-04-24 00:10:25.755 +03:00 [ERR] frame=   71 fps= 11 q=29.0 size=     512kB time=00:00:03.97 bitrate=1056.4kbits/s speed=0.601x    
2023-04-24 00:10:26.585 +03:00 [ERR] frame=   82 fps= 11 q=29.0 size=     512kB time=00:00:04.36 bitrate= 960.9kbits/s speed=0.611x    
2023-04-24 00:10:26.828 +03:00 [ERR] frame=   93 fps= 12 q=29.0 size=     768kB time=00:00:04.66 bitrate=1348.1kbits/s speed=0.61x    
2023-04-24 00:10:27.429 +03:00 [ERR] frame=  104 fps= 13 q=29.0 size=     768kB time=00:00:05.06 bitrate=1243.0kbits/s speed=0.621x    
2023-04-24 00:10:27.921 +03:00 [ERR] frame=  115 fps= 13 q=29.0 size=     768kB time=00:00:05.43 bitrate=1158.0kbits/s speed=0.624x    
2023-04-24 00:10:28.846 +03:00 [ERR] frame=  128 fps= 14 q=29.0 size=    1024kB time=00:00:05.85 bitrate=1433.7kbits/s speed=0.629x    
2023-04-24 00:10:29.072 +03:00 [ERR] frame=  137 fps= 14 q=29.0 size=    1024kB time=00:00:06.15 bitrate=1363.3kbits/s speed=0.627x    
2023-04-24 00:10:29.486 +03:00 [ERR] frame=  148 fps= 14 q=29.0 size=    1024kB time=00:00:06.52 bitrate=1285.7kbits/s speed=0.632x    
2023-04-24 00:10:31.448 +03:00 [ERR] frame=  207 fps= 17 q=-1.0 Lsize=    1889kB time=00:00:06.80 bitrate=2274.0kbits/s speed=0.552x    
2023-04-24 00:10:31.449 +03:00 [ERR] video:1788kB audio:93kB subtitle:0kB other streams:0kB global headers:0kB muxing overhead: 0.456332%
2023-04-24 00:10:31.613 +03:00 [ERR] [libx264 @ 000001409a500b00] frame I:1     Avg QP:20.50  size: 65249
2023-04-24 00:10:31.613 +03:00 [ERR] [libx264 @ 000001409a500b00] frame P:52    Avg QP:22.02  size: 19434
2023-04-24 00:10:31.613 +03:00 [ERR] [libx264 @ 000001409a500b00] frame B:154   Avg QP:24.04  size:  4898
2023-04-24 00:10:31.613 +03:00 [ERR] [libx264 @ 000001409a500b00] consecutive B-frames:  0.5%  1.0%  0.0% 98.6%
2023-04-24 00:10:31.613 +03:00 [ERR] [libx264 @ 000001409a500b00] mb I  I16..4: 30.6% 56.2% 13.3%
2023-04-24 00:10:31.613 +03:00 [ERR] [libx264 @ 000001409a500b00] mb P  I16..4: 11.0% 16.1%  0.3%  P16..4: 25.0%  5.0%  1.5%  0.0%  0.0%    skip:41.1%
2023-04-24 00:10:31.613 +03:00 [ERR] [libx264 @ 000001409a500b00] mb B  I16..4:  1.0%  1.5%  0.0%  B16..8: 19.8%  1.2%  0.1%  direct: 1.5%  skip:74.9%  L0:46.9% L1:51.5% BI: 1.7%
2023-04-24 00:10:31.613 +03:00 [ERR] [libx264 @ 000001409a500b00] 8x8 transform intra:58.4% inter:93.3%
2023-04-24 00:10:31.613 +03:00 [ERR] [libx264 @ 000001409a500b00] coded y,uvDC,uvAC intra: 24.4% 66.0% 9.2% inter: 3.4% 11.6% 0.1%
2023-04-24 00:10:31.613 +03:00 [ERR] [libx264 @ 000001409a500b00] i16 v,h,dc,p: 32% 24%  7% 37%
2023-04-24 00:10:31.613 +03:00 [ERR] [libx264 @ 000001409a500b00] i8 v,h,dc,ddl,ddr,vr,hd,vl,hu: 30% 21% 25%  2%  5%  7%  4%  3%  3%
2023-04-24 00:10:31.613 +03:00 [ERR] [libx264 @ 000001409a500b00] i4 v,h,dc,ddl,ddr,vr,hd,vl,hu: 47% 23%  9%  2%  5%  5%  4%  3%  2%
2023-04-24 00:10:31.613 +03:00 [ERR] [libx264 @ 000001409a500b00] i8c dc,h,v,p: 42% 21% 27% 11%
2023-04-24 00:10:31.613 +03:00 [ERR] [libx264 @ 000001409a500b00] Weighted P-Frames: Y:0.0% UV:0.0%
2023-04-24 00:10:31.613 +03:00 [ERR] [libx264 @ 000001409a500b00] ref P L0: 68.8%  7.0% 16.5%  7.8%
2023-04-24 00:10:31.613 +03:00 [ERR] [libx264 @ 000001409a500b00] ref B L0: 88.2%  9.5%  2.3%
2023-04-24 00:10:31.614 +03:00 [ERR] [libx264 @ 000001409a500b00] ref B L1: 95.4%  4.6%
2023-04-24 00:10:31.614 +03:00 [ERR] [libx264 @ 000001409a500b00] kb/s:2119.77
2023-04-24 00:10:31.670 +03:00 [ERR] [aac @ 000001409a3bb140] Qavg: 9372.145
2023-04-24 00:10:31.751 +03:00 [INF] Reverse video command executed succesfully
